<svg width="110" height="32" viewBox="0 0 110 32" fill="none" xmlns="http://www.w3.org/2000/svg">
<rect width="32" height="32" rx="8" fill="#256AF4"/>
<path d="M8.5 15.1667V8.5H15.1667V15.1667H8.5ZM8.5 23.5V16.8333H15.1667V23.5H8.5ZM16.8333 15.1667V8.5H23.5V15.1667H16.8333ZM16.8333 23.5V16.8333H23.5V23.5H16.8333ZM10.1667 13.5H13.5V10.1667H10.1667V13.5ZM18.5 13.5H21.8333V10.1667H18.5V13.5ZM18.5 21.8333H21.8333V18.5H18.5V21.8333ZM10.1667 21.8333H13.5V18.5H10.1667V21.8333Z" fill="white"/>
<path d="M45.988 21.9405C44.9402 21.9405 44.028 21.7795 43.2514 21.4574C42.4748 21.1353 41.8697 20.6584 41.4359 20.0267C41.0022 19.395 40.7717 18.6149 40.7442 17.6862H43.3552C43.3894 18.1278 43.5208 18.4964 43.7494 18.792C43.9779 19.0876 44.2831 19.3091 44.6649 19.4564C45.0467 19.6038 45.4782 19.6775 45.9595 19.6775C46.4374 19.6775 46.8544 19.6077 47.2106 19.4681C47.5668 19.3286 47.8438 19.1328 48.0417 18.881C48.2396 18.6291 48.3385 18.3381 48.3385 18.0081C48.3385 17.7065 48.2499 17.4547 48.0727 17.2527C47.8955 17.0508 47.6391 16.8775 47.3035 16.7329C46.9679 16.5883 46.561 16.4594 46.0827 16.3463L44.6431 15.9883C43.5346 15.7179 42.666 15.2941 42.0374 14.7169C41.4087 14.1397 41.0944 13.3748 41.0944 12.4222C41.0944 11.6333 41.3079 10.943 41.7348 10.3513C42.1617 9.75962 42.7458 9.29956 43.4872 8.97115C44.2286 8.64273 45.0734 8.47852 46.0216 8.47852C46.9905 8.47852 47.8353 8.64431 48.5559 8.97589C49.2766 9.30748 49.8383 9.76712 50.2411 10.3548C50.6438 10.9425 50.8522 11.6196 50.8661 12.3862H48.2726C48.2217 11.8614 47.9969 11.4548 47.5982 11.1663C47.1995 10.8777 46.6659 10.7335 45.9973 10.7335C45.5424 10.7335 45.154 10.7989 44.832 10.9297C44.51 11.0604 44.2651 11.2404 44.0972 11.4696C43.9292 11.6987 43.8453 11.9598 43.8453 12.2529C43.8453 12.5739 43.9431 12.8403 44.1386 13.0522C44.3342 13.264 44.592 13.4365 44.9121 13.5696C45.2321 13.7028 45.5756 13.8133 45.9427 13.9012L47.1241 14.1903C47.675 14.3157 48.1882 14.4842 48.6636 14.6957C49.139 14.9072 49.5551 15.1666 49.9117 15.4739C50.2684 15.7812 50.5459 16.1451 50.7443 16.5656C50.9427 16.9861 51.0419 17.471 51.0419 18.0203C51.0419 18.8142 50.8416 19.5054 50.4411 20.0939C50.0405 20.6823 49.4636 21.1372 48.7103 21.4586C47.9571 21.7799 47.0496 21.9405 45.988 21.9405ZM57.3419 11.9238V13.9324H51.5119V11.9238H57.3419ZM52.8651 9.58594H55.5008V18.8737C55.5008 19.1865 55.5704 19.4172 55.7095 19.5655C55.8487 19.7139 56.0772 19.7881 56.3952 19.7881C56.4979 19.7881 56.6396 19.7755 56.8202 19.7505C57.0008 19.7255 57.1381 19.7013 57.2322 19.6778L57.6096 21.6545C57.3158 21.7416 57.0246 21.8022 56.7359 21.8362C56.4472 21.8703 56.1703 21.8873 55.9051 21.8873C54.9194 21.8873 54.1663 21.6481 53.6458 21.1698C53.1253 20.6915 52.8651 20.0035 52.8651 19.1059V9.58594ZM58.6008 21.75V11.9238H61.2365V21.75H58.6008ZM59.918 10.6429C59.521 10.6429 59.181 10.5102 58.8977 10.2449C58.6145 9.97951 58.4728 9.66107 58.4728 9.28956C58.4728 8.91046 58.6145 8.58978 58.8977 8.32751C59.181 8.06524 59.521 7.9341 59.918 7.9341C60.3167 7.9341 60.6579 8.06507 60.9416 8.327C61.2253 8.58893 61.3671 8.9097 61.3671 9.28931C61.3671 9.66133 61.2253 9.97993 60.9416 10.2451C60.6579 10.5103 60.3167 10.6429 59.918 10.6429ZM67.9117 11.9238V13.9324H62.0816V11.9238H67.9117ZM63.4348 9.58594H66.0705V18.8737C66.0705 19.1865 66.1401 19.4172 66.2793 19.5655C66.4184 19.7139 66.647 19.7881 66.9649 19.7881C67.0677 19.7881 67.2093 19.7755 67.3899 19.7505C67.5705 19.7255 67.7079 19.7013 67.802 19.6778L68.1794 21.6545C67.8856 21.7416 67.5943 21.8022 67.3056 21.8362C67.0169 21.8703 66.74 21.8873 66.4748 21.8873C65.4891 21.8873 64.736 21.6481 64.2155 21.1698C63.695 20.6915 63.4348 20.0035 63.4348 19.1059V9.58594ZM73.3877 21.942C72.4022 21.942 71.5502 21.7302 70.8319 21.3068C70.1135 20.8833 69.5597 20.2915 69.1704 19.5314C68.7812 18.7712 68.5866 17.8873 68.5866 16.8795C68.5866 15.8636 68.7812 14.9749 69.1704 14.2134C69.5597 13.4519 70.1135 12.8594 70.8319 12.436C71.5502 12.0125 72.4022 11.8008 73.3877 11.8008C73.9731 11.8008 74.5115 11.8765 75.003 12.0281C75.4945 12.1796 75.9304 12.3964 76.3106 12.6785C76.6909 12.9605 77.0039 13.3033 77.2495 13.7066C77.4951 14.11 77.6647 14.5635 77.7584 15.0672L75.3076 15.5263C75.2531 15.2712 75.1708 15.0421 75.0607 14.8391C74.9506 14.6361 74.8161 14.4625 74.6571 14.3183C74.4981 14.1741 74.3147 14.0642 74.1069 13.9888C73.8991 13.9133 73.6689 13.8756 73.4162 13.8756C72.9466 13.8756 72.5531 14.0019 72.2357 14.2545C71.9182 14.5071 71.6783 14.8579 71.516 15.3069C71.3536 15.756 71.2724 16.277 71.2724 16.87C71.2724 17.4544 71.3536 17.972 71.516 18.4229C71.6783 18.8738 71.9182 19.2272 72.2357 19.4832C72.5531 19.7392 72.9466 19.8672 73.4162 19.8672C73.6715 19.8672 73.9045 19.828 74.115 19.7496C74.3255 19.6712 74.5124 19.5577 74.6756 19.4093C74.8389 19.2608 74.9756 19.08 75.0856 18.8668C75.1957 18.6536 75.2765 18.4152 75.3278 18.1515L77.7745 18.6059C77.6836 19.1245 77.5147 19.5884 77.2677 19.9976C77.0207 20.4068 76.7072 20.7568 76.3272 21.0474C75.9471 21.338 75.5092 21.5598 75.0135 21.7126C74.5177 21.8655 73.9758 21.942 73.3877 21.942ZM81.7713 16.0607V21.75H79.1356V8.6543H81.7238V14.3769H81.5083C81.766 13.5573 82.1575 12.923 82.6827 12.4741C83.208 12.0252 83.8854 11.8008 84.7149 11.8008C85.396 11.8008 85.9902 11.9489 86.4975 12.2451C87.0048 12.5413 87.3984 12.9657 87.6784 13.5183C87.9583 14.0709 88.0982 14.7315 88.0982 15.5003V21.75H85.4584V15.9596C85.4584 15.3493 85.301 14.8706 84.9862 14.5236C84.6714 14.1765 84.2361 14.003 83.6803 14.003C83.3096 14.003 82.9803 14.0842 82.6923 14.2466C82.4043 14.4089 82.1788 14.6429 82.0158 14.9484C81.8528 15.254 81.7713 15.6248 81.7713 16.0607ZM99.1688 21.9325C98.087 21.9325 97.1402 21.7327 96.3286 21.3331C95.5169 20.9336 94.8867 20.3751 94.4379 19.6578C93.9892 18.9404 93.7648 18.1066 93.7648 17.1563V8.6543H96.4504V16.9343C96.4504 17.4442 96.5635 17.8963 96.7896 18.2906C97.0157 18.6849 97.332 18.995 97.7384 19.2209C98.1449 19.4468 98.6217 19.5597 99.1688 19.5597C99.7191 19.5597 100.198 19.4468 100.604 19.2209C101.011 18.995 101.327 18.6849 101.552 18.2906C101.776 17.8963 101.889 17.4442 101.889 16.9343V8.6543H104.574V17.1563C104.574 18.1066 104.349 18.9404 103.899 19.6578C103.448 20.3751 102.818 20.9336 102.007 21.3331C101.197 21.7327 100.251 21.9325 99.1688 21.9325ZM109.175 8.6543V21.75H106.49V8.6543H109.175Z" fill="white"/>
</svg>
