<svg width="31" height="31" viewBox="0 0 31 31" fill="none" xmlns="http://www.w3.org/2000/svg">
<rect width="31" height="31" rx="8" fill="#1E293B"/>
<path d="M15.5 23C13.4167 23 11.6458 22.2708 10.1875 20.8125C8.72917 19.3542 8 17.5833 8 15.5C8 13.4167 8.72917 11.6458 10.1875 10.1875C11.6458 8.72917 13.4167 8 15.5 8C15.6944 8 15.8854 8.00694 16.0729 8.02083C16.2604 8.03472 16.4444 8.05556 16.625 8.08333C16.0556 8.48611 15.6007 9.01042 15.2604 9.65625C14.9201 10.3021 14.75 11 14.75 11.75C14.75 13 15.1875 14.0625 16.0625 14.9375C16.9375 15.8125 18 16.25 19.25 16.25C20.0139 16.25 20.7153 16.0799 21.3542 15.7396C21.9931 15.3993 22.5139 14.9444 22.9167 14.375C22.9444 14.5556 22.9653 14.7396 22.9792 14.9271C22.9931 15.1146 23 15.3056 23 15.5C23 17.5833 22.2708 19.3542 20.8125 20.8125C19.3542 22.2708 17.5833 23 15.5 23ZM15.5 21.3333C16.7222 21.3333 17.8194 20.9965 18.7917 20.3229C19.7639 19.6493 20.4722 18.7708 20.9167 17.6875C20.6389 17.7569 20.3611 17.8125 20.0833 17.8542C19.8056 17.8958 19.5278 17.9167 19.25 17.9167C17.5417 17.9167 16.0868 17.316 14.8854 16.1146C13.684 14.9132 13.0833 13.4583 13.0833 11.75C13.0833 11.4722 13.1042 11.1944 13.1458 10.9167C13.1875 10.6389 13.2431 10.3611 13.3125 10.0833C12.2292 10.5278 11.3507 11.2361 10.6771 12.2083C10.0035 13.1806 9.66667 14.2778 9.66667 15.5C9.66667 17.1111 10.2361 18.4861 11.375 19.625C12.5139 20.7639 13.8889 21.3333 15.5 21.3333Z" fill="#CBD5E1"/>
</svg>
